<?xml version="1.0" encoding="UTF-8" standalone="no"?>
<!DOCTYPE svg PUBLIC "-//W3C//DTD SVG 1.1//EN"
"http://www.w3.org/Graphics/SVG/1.1/DTD/svg11.dtd">
<svg viewBox="0 0 935 1210" version="1.1" xmlns="http://www.w3.org/2000/svg" xmlns:xlink="http://www.w3.org/1999/xlink">
<defs>
<style type="text/css"><![CDATA[
.g0_72{
fill: #2C2C2C;
}
.g1_72{
fill: #808080;
}
.g2_72{
fill: #2C2C2C;
stroke: #000000;
stroke-width: 0.152;
stroke-linecap: square;
stroke-linejoin: miter;
}
.g3_72{
fill: #808080;
stroke: #000000;
stroke-width: 0.152;
stroke-linecap: square;
stroke-linejoin: miter;
}
.g4_72{
fill: none;
stroke: #0000EE;
stroke-width: 1.145;
stroke-linecap: square;
stroke-linejoin: miter;
}
]]></style>
</defs>
<path d="M35.1,44.7H899.9v1.1H35.1V44.7Z" class="g0_72"/>
<path d="M35.1,48.1H899.9v1.2H35.1V48.1Z" class="g1_72"/>
<path fill-rule="evenodd" d="M35.1,44.7v4.6l1.2,-1.2V44.7Z" class="g2_72"/>
<path fill-rule="evenodd" d="M898.7,45.8v3.5h1.2V44.7Z" class="g3_72"/>
<path d="M35.1,323.1H899.9v1.2H35.1v-1.2Z" class="g0_72"/>
<path d="M35.1,326.6H899.9v1.1H35.1v-1.1Z" class="g1_72"/>
<path fill-rule="evenodd" d="M35.1,323.1v4.6l1.2,-1.1v-3.5Z" class="g2_72"/>
<path fill-rule="evenodd" d="M898.7,324.3v3.4h1.2v-4.6Z" class="g3_72"/>
<path d="M35.1,774.6H899.9v1.1H35.1v-1.1Z" class="g0_72"/>
<path d="M35.1,778H899.9v1.2H35.1V778Z" class="g1_72"/>
<path fill-rule="evenodd" d="M35.1,774.6v4.6L36.3,778v-3.4Z" class="g2_72"/>
<path fill-rule="evenodd" d="M898.7,775.7v3.5h1.2v-4.6Z" class="g3_72"/>
<path d="M35.1,1026.7H899.9v1.1H35.1v-1.1Z" class="g0_72"/>
<path d="M35.1,1030.1H899.9v1.2H35.1v-1.2Z" class="g1_72"/>
<path fill-rule="evenodd" d="M35.1,1026.7v4.6l1.2,-1.2v-3.4Z" class="g2_72"/>
<path fill-rule="evenodd" d="M898.7,1027.8v3.5h1.2v-4.6Z" class="g3_72"/>
<path d="M481.8,280.2h71Z" class="g4_72"/>
<image preserveAspectRatio="none" x="42" y="346" width="851" height="332" xlink:href="img/1.png"/>
<path d="M481.8,983.7h71Z" class="g4_72"/>
</svg>