<?xml version="1.0" encoding="UTF-8" standalone="no"?>
<!DOCTYPE svg PUBLIC "-//W3C//DTD SVG 1.1//EN"
"http://www.w3.org/Graphics/SVG/1.1/DTD/svg11.dtd">
<svg viewBox="0 0 935 1210" version="1.1" xmlns="http://www.w3.org/2000/svg" xmlns:xlink="http://www.w3.org/1999/xlink">
<defs>
<style type="text/css"><![CDATA[
.g0_124{
fill: none;
stroke: #0000EE;
stroke-width: 1.145;
stroke-linecap: square;
stroke-linejoin: miter;
}
]]></style>
</defs>
<path d="M342.1,28.1h34.3Zm51.5,0H428ZM321.5,56.7h34.3Zm51.5,0h34.4Zm14.9,28.7h22.9ZM429.1,114h11.5Zm28.7,0h11.4ZM196.6,171.3h22.9Zm112.3,28.6h22.9Zm-72.2,28.7h22.9Zm67.6,28.6h22.9ZM109.6,314.5h22.9Zm30.9,28.7h22.9Zm40.1,0h22.9Zm35.5,28.6H239Zm40.1,0h22.9ZM153.1,400.5H176Zm40.1,0h22.9Zm4.6,28.6h22.9Zm30.9,28.7h11.4ZM122.2,486.4h22.9Zm65.3,28.7h22.9Zm40,0h23Zm8.1,28.6h22.9Zm40.1,0h22.9Zm-29.8,28.6h22.9Zm40.1,0h22.9Zm-53.9,57.3H255Zm40.1,0h22.9Zm-82.4,28.7h22.9Zm40,0h22.9Zm-87,28.6h22.9Zm71,28.7h22.9Zm40.1,0h22.9Zm-40.1,28.6h22.9Zm-68.7,28.7H168Zm76.7,28.6h22.9Zm-44.6,28.7h22.9Zm-4.6,28.6h22.9Zm65.3,57.3h22.9Zm40,0h23ZM134.8,944.7h22.9Zm40.1,0h22.9ZM444,1002h22.9Zm40.1,0H507Zm-249.7,28.7h22.9Zm25.2,28.6h22.9Zm40.1,0h22.9ZM109.6,1088h22.9Zm227.9,28.6h22.9Zm40.1,0h22.9Zm92.8,28.7h34.3Zm-163.8,28.6h34.3Zm51.5,0h34.4Z" class="g0_124"/>
</svg>