<?xml version="1.0" encoding="UTF-8" standalone="no"?>
<!DOCTYPE svg PUBLIC "-//W3C//DTD SVG 1.1//EN"
"http://www.w3.org/Graphics/SVG/1.1/DTD/svg11.dtd">
<svg viewBox="0 0 935 1210" version="1.1" xmlns="http://www.w3.org/2000/svg" xmlns:xlink="http://www.w3.org/1999/xlink">
<defs>
<style type="text/css"><![CDATA[
.g0_122{
fill: none;
stroke: #0000EE;
stroke-width: 1.145;
stroke-linecap: square;
stroke-linejoin: miter;
}
]]></style>
</defs>
<path d="M390.2,31.5h22.9Zm40.1,0h22.9Zm20.6,28.7h22.9ZM272.2,88.8h22.9Zm40.1,0h22.9ZM132.5,117.4h22.9Zm40.1,0h22.9Zm166,28.7h23Zm40.1,0h22.9ZM234.4,203.4h22.9ZM378.7,232h22.9Zm40.1,0h11.5Zm18.3,28.7h23Zm13.8,28.6h22.9Zm40.1,0h22.9Zm40.1,0H554ZM196.6,346.6h22.9Zm40.1,0h22.9Zm134,28.7h22.9Zm-134,28.6h22.9Zm9.2,28.7h22.9ZM318,489.8h22.9Zm-85.9,28.7H255Zm74.5,28.6h22.9Zm40.1,0h22.9Zm-42.4,28.7h34.3Zm-59.6,28.6h22.9Zm40.1,0h22.9Zm124.9,28.7h22.9Zm40,0h23Zm-166,28.6h22.9Zm40.1,0h22.9Zm30.9,84.8h11.4Zm28.6,0h11.5Zm185.6,28.7h22.9ZM134.8,832.4h22.9Zm40.1,0h22.9Zm59.5,28.7h22.9Zm40.1,0h22.9Zm-2.3,28.6h22.9Zm50.4,28.7h22.9Zm40.1,0h22.9ZM376.4,947h23Zm40.1,0h22.9Zm-150,28.7h34.4Zm103.1,28.6h34.3Zm51.5,0h34.4Zm51.6,0H507ZM461.2,1033h11.5Zm28.6,0h11.5Zm-198.1,57.3h22.9Zm40.1,0h22.9Zm41.2,28.6h22.9Zm-67.6,28.7h22.9Zm40.1,0h22.9Z" class="g0_122"/>
</svg>