<?xml version="1.0" encoding="UTF-8" standalone="no"?>
<!DOCTYPE svg PUBLIC "-//W3C//DTD SVG 1.1//EN"
"http://www.w3.org/Graphics/SVG/1.1/DTD/svg11.dtd">
<svg viewBox="0 0 935 1210" version="1.1" xmlns="http://www.w3.org/2000/svg" xmlns:xlink="http://www.w3.org/1999/xlink">
<defs>
<style type="text/css"><![CDATA[
.g0_128{
fill: none;
stroke: #0000EE;
stroke-width: 1.145;
stroke-linecap: square;
stroke-linejoin: miter;
}
]]></style>
</defs>
<path d="M371.9,31.5h34.3ZM320.3,60.2h34.4Zm51.6,0h34.3Zm-244,28.6h34.4Zm-4.6,84.8h11.5Zm28.7,0h22.9Zm76.7,28.6h11.4Zm28.6,0h11.5Zm28.7,0h11.4Zm64.1,113.5H373ZM178.3,344.3h189Zm50.4,57.3h22.9ZM318,430.3h22.9Zm64.2,28.6h11.4Zm28.6,0h22.9Zm-32.1,28.7h22.9Zm40.1,0h22.9Zm-27.5,84.7h22.9Zm40.1,0h22.9ZM160,629.6h34.3Zm51.5,0h34.4Zm-30.9,28.7h34.3Zm51.5,0h34.4Zm-19.4,28.6H247Zm-9.2,28.7h34.4Zm51.5,0h34.4Zm87.1,28.6h34.3Zm51.5,0H428Zm-59.5,28.7h34.3Zm51.5,0H420ZM234.4,801.5h34.4Zm51.6,0h34.3ZM138.2,830.2h34.4Zm14.9,28.6h34.4Zm51.5,0H239Zm-82.4,28.6h34.3Zm103.1,28.7h34.3Zm51.5,0h34.4Zm-40.1,28.6h34.4Zm51.6,0h34.3ZM165.7,973.4h11.5Zm28.6,0h11.5ZM437.1,1002h23Zm-321.8,28.7h22.9Zm40.1,0h22.9Zm350.5,28.6h34.3Zm51.5,0h34.4ZM308.9,1088h22.9Zm33.2,57.3h34.3Zm51.5,0H428Zm-117.9,28.6h11.4Z" class="g0_128"/>
</svg>