<?xml version="1.0" encoding="UTF-8" standalone="no"?>
<!DOCTYPE svg PUBLIC "-//W3C//DTD SVG 1.1//EN"
"http://www.w3.org/Graphics/SVG/1.1/DTD/svg11.dtd">
<svg viewBox="0 0 935 1210" version="1.1" xmlns="http://www.w3.org/2000/svg" xmlns:xlink="http://www.w3.org/1999/xlink">
<defs>
<style type="text/css"><![CDATA[
.g0_125{
fill: none;
stroke: #0000EE;
stroke-width: 1.145;
stroke-linecap: square;
stroke-linejoin: miter;
}
]]></style>
</defs>
<path d="M298.6,28.1h22.9Zm69.8,28.6h22.9Zm40.1,0h22.9ZM379.9,85.4h22.9ZM166.8,114h23ZM286,171.3h34.3Zm1.1,28.6h11.5Zm29.8,28.7h11.4Zm28.6,0H357Zm-14.9,28.6h22.9Zm111.1,28.7h11.5Zm58.4,28.6h23Zm40.1,0h34.4Zm-189,28.7h23Zm40.1,0h22.9ZM216.1,456.6H239Zm40.1,0h22.9ZM223,485.3h11.4Zm28.6,0h11.5Zm-85.9,57.3h11.5Zm28.6,0h11.5ZM318,571.2h11.5Zm28.7,0h11.4Zm61.8,28.6H420Zm28.6,0h23ZM164.6,628.5H461.2Zm-11.5,28.6h11.5Zm28.6,0h11.5Zm1.2,28.7h11.4Zm28.6,0H223Zm-38.9,28.6H184Zm28.6,0h11.5Zm145.5,28.7h22.9Zm40.1,0h22.9Zm-11.5,28.6h34.4ZM106.1,800.4H129Zm171.8,57.3h23Zm40.1,0h22.9ZM198.9,886.3h34.4Zm113.4,28.6h34.4Zm-95.1,28.7h34.4Zm51.6,0h34.3Zm56.1,28.6h22.9Zm-167.2,28.7h22.9Zm40.1,0h22.9Zm-14.9,28.6h34.3Zm51.5,0h34.4Zm-99.6,28.7h34.3Zm51.5,0h34.4Zm-14.9,28.6h34.4Zm51.6,0h34.3Zm-100.8,28.7h34.3Zm51.5,0h34.4Zm21.8,28.6h11.4Zm28.6,0H247Zm40.1,0h34.4Z" class="g0_125"/>
</svg>