<?xml version="1.0" encoding="UTF-8" standalone="no"?>
<!DOCTYPE svg PUBLIC "-//W3C//DTD SVG 1.1//EN"
"http://www.w3.org/Graphics/SVG/1.1/DTD/svg11.dtd">
<svg viewBox="0 0 935 1210" version="1.1" xmlns="http://www.w3.org/2000/svg" xmlns:xlink="http://www.w3.org/1999/xlink">
<defs>
<style type="text/css"><![CDATA[
.g0_131{
fill: none;
stroke: #0000EE;
stroke-width: 1.145;
stroke-linecap: square;
stroke-linejoin: miter;
}
]]></style>
</defs>
<path d="M155.4,28.1h34.4Zm51.5,0h34.4ZM424.5,56.7h23ZM340.9,85.4h11.5Zm28.7,0H381ZM234.4,114H531.1Zm245.1,28.7h22.9ZM314.6,171.3h22.9Zm45.8,28.6h22.9Zm-79,28.7h22.9ZM310,257.2h22.9Zm225.6,28.7h23Zm40.1,0h22.9Zm-98.5,28.6h22.9ZM95.8,343.2H302Zm260,28.6h34.4Zm4.6,28.7h22.9Zm175.2,28.6h23Zm40.1,0h22.9ZM454.3,486.4h22.9Zm40.1,0h22.9ZM219.5,515.1h22.9Zm40.1,0h22.9ZM155.4,543.7h34.4Zm68.7,28.6H362.7Zm51.6,57.3h22.9ZM153.1,658.3H176Zm120.3,28.6h22.9Zm179.8,28.7h22.9Zm-236,28.6h34.4Zm310.4,28.7h22.9ZM360.4,830.2h34.4Zm-18.3,28.6h34.3Zm-21.8,28.6h34.4Zm51.6,0h34.3Zm105.3,28.7h22.9ZM322.6,944.7h11.5Zm28.6,0h11.5Zm50.4,57.3H436Zm51.6,0h34.3Zm-34.4,28.7h34.4Zm51.6,0h34.3Zm-360.8,28.6h34.3Zm260,28.7h34.3Zm51.5,0h34.4Zm-146.6,28.6h34.4Zm-121.4,28.7h34.4Zm51.5,0H239Zm148.9,28.6h34.4Z" class="g0_131"/>
</svg>