<?xml version="1.0" encoding="UTF-8" standalone="no"?>
<!DOCTYPE svg PUBLIC "-//W3C//DTD SVG 1.1//EN"
"http://www.w3.org/Graphics/SVG/1.1/DTD/svg11.dtd">
<svg viewBox="0 0 935 1210" version="1.1" xmlns="http://www.w3.org/2000/svg" xmlns:xlink="http://www.w3.org/1999/xlink">
<defs>
<style type="text/css"><![CDATA[
.g0_126{
fill: none;
stroke: #0000EE;
stroke-width: 1.145;
stroke-linecap: square;
stroke-linejoin: miter;
}
]]></style>
</defs>
<path d="M401.6,28.1H436Zm51.6,0h34.3ZM275.7,56.7H310Zm51.5,0h34.4ZM304.3,85.4h34.3Zm51.5,0h34.4ZM342.1,114h34.3Zm51.5,0H428Zm-57.2,28.7h34.3Zm51.5,0h34.4Zm-34.4,28.6h34.4Zm51.6,0h34.3Zm-83.6,28.6h34.3Zm51.5,0h34.4ZM227.5,257.2h23Zm40.1,0h22.9Zm186.7,28.7h22.9Zm40.1,0h22.9Zm-189,28.6h22.9Zm-36.6,28.7h22.9Zm40.1,0h22.9Zm63,28.6h34.3Zm51.5,0h34.4ZM182.9,400.5h34.3Zm51.5,0h34.4Zm144.3,28.6h22.9Zm40.1,0h22.9ZM298.6,457.8h22.9Zm-83.7,28.6H353.5Zm35.6,28.7h22.9Zm40,0h22.9ZM99.3,543.7h22.9Zm106.5,28.6h11.4Zm28.6,0h11.5Zm-68.7,84.8h11.5Zm28.6,0h11.5Zm139.8,28.7h34.3Zm51.5,0H420ZM260.8,714.4h22.9Zm40.1,0h22.9Zm-36.7,57.3h22.9ZM294,800.4h34.3Zm51.5,0h34.4ZM109.6,829h22.9Zm215.3,28.7h22.9Zm40.1,0h22.9ZM250.5,886.3h22.9Zm127.1,28.6h22.9Zm-50.4,57.3h34.4Zm51.5,0h34.4Zm-44.6,28.7h34.3Zm51.5,0H420Zm-30.9,28.6h22.9Zm40.1,0h34.3Zm51.5,0h34.4Zm-122.5,57.3h22.9Zm40,0h23Zm11.5,28.7h34.4Zm51.5,0h34.4ZM412,1144.1h34.3Zm51.5,0h34.4Z" class="g0_126"/>
</svg>