<?xml version="1.0" encoding="UTF-8" standalone="no"?>
<!DOCTYPE svg PUBLIC "-//W3C//DTD SVG 1.1//EN"
"http://www.w3.org/Graphics/SVG/1.1/DTD/svg11.dtd">
<svg viewBox="0 0 935 1210" version="1.1" xmlns="http://www.w3.org/2000/svg" xmlns:xlink="http://www.w3.org/1999/xlink">
<defs>
<style type="text/css"><![CDATA[
.g0_132{
fill: none;
stroke: #0000EE;
stroke-width: 1.145;
stroke-linecap: square;
stroke-linejoin: miter;
}
]]></style>
</defs>
<path d="M440.6,28.1h22.9Zm-173,57.3h22.9Zm40.1,0h22.9Zm-79,28.6h22.9Zm40.1,0h22.9Zm-134,28.7h22.9Zm40.1,0h22.9Zm301.2,28.6H499Zm40.1,0h22.9Zm-236,28.6H434.9Zm121.4,28.7h22.9Zm40.1,0h22.9ZM305.4,257.2h22.9ZM231,285.9h22.9Zm40.1,0H294Zm-35.5,28.6H345.5ZM122.2,343.2h22.9Zm131.7,28.6h22.9Zm40.1,0h22.9Zm40.1,0H357Zm40.1,0h22.9ZM166.8,400.5h11.5Zm28.7,0h11.4Zm140.9,28.6h34.3Zm51.5,0h34.4ZM173.7,486.4h22.9Zm40.1,0h22.9Zm-60.7,28.7H176Zm40.1,0h22.9Zm139.7,28.6h34.4Zm51.6,0h34.3ZM228.7,572.3h11.4Zm28.6,0h11.5ZM122.2,601h22.9ZM113,629.6h22.9Zm40.1,0H176Zm13.7,28.7h23Zm113.4,28.6h34.4Zm51.6,0h34.3ZM194.3,715.6h22.9Zm40.1,0h22.9Zm546.4,28.6h34.3Zm51.5,0h34.4ZM226.4,857.7H327.2Zm36.7,28.6H400.5Zm-96.3,28.6h11.5Zm28.7,0h11.4Zm60.7,57.3h11.4Zm-39,28.7h11.5Zm28.7,0h11.4Zm14.9,28.6h34.3Zm126,57.3h34.3Zm51.5,0h34.4Zm-189,28.7h34.4Zm51.6,0h34.3Zm54.9,57.3h22.9Z" class="g0_132"/>
</svg>