<?xml version="1.0" encoding="UTF-8" standalone="no"?>
<!DOCTYPE svg PUBLIC "-//W3C//DTD SVG 1.1//EN"
"http://www.w3.org/Graphics/SVG/1.1/DTD/svg11.dtd">
<svg viewBox="0 0 935 1210" version="1.1" xmlns="http://www.w3.org/2000/svg" xmlns:xlink="http://www.w3.org/1999/xlink">
<defs>
<style type="text/css"><![CDATA[
.g0_127{
fill: none;
stroke: #0000EE;
stroke-width: 1.145;
stroke-linecap: square;
stroke-linejoin: miter;
}
]]></style>
</defs>
<path d="M165.7,28.1h34.4Zm51.5,0h34.4ZM401.6,56.7H436Zm51.6,0h34.3ZM358.1,85.4h34.4Zm51.6,0H444ZM210.4,114h22.9Zm159.2,28.7h34.3Zm51.5,0h34.4ZM219.5,171.3h34.4Zm58.4,28.6h34.4Zm51.6,0h34.3Zm-32.1,28.7h34.4Zm51.6,0h34.3Zm-40.1,28.6h34.3Zm51.5,0h34.4Zm-16,28.7h34.3Zm51.5,0h34.4Zm-12.6,28.6h34.4ZM231,343.2h34.3Zm95,28.6h34.4Zm51.6,0H412ZM219.5,400.5h34.4Zm51.6,0h34.3Zm-18.4,28.6h34.4Zm51.6,0h34.3Zm-53.8,57.3h22.9Zm-25.2,28.7h22.9Zm40,0h23Zm-103,28.6h22.9Zm91.6,28.6h22.9Zm186.7,84.8h22.9ZM197.8,741.9h22.9Zm80.1,57.3h23Zm59.6,28.7h22.9Zm40.1,0h22.9Zm27.5,28.6H428Zm40.1,0h22.9Zm-99.7,28.7H357Zm28.7,0h11.4ZM172.6,969.9H184Zm138.6,28.7h22.9Zm-145.5,28.6h34.4Zm361.9,28.7h11.5Zm28.7,0h11.4Zm-116.9,28.6h22.9ZM184,1113.2h22.9Zm40.1,0H247Zm136.3,57.3h34.4Zm-18.3,28.6h34.3Z" class="g0_127"/>
</svg>