<?xml version="1.0" encoding="UTF-8" standalone="no"?>
<!DOCTYPE svg PUBLIC "-//W3C//DTD SVG 1.1//EN"
"http://www.w3.org/Graphics/SVG/1.1/DTD/svg11.dtd">
<svg viewBox="0 0 935 1210" version="1.1" xmlns="http://www.w3.org/2000/svg" xmlns:xlink="http://www.w3.org/1999/xlink">
<defs>
<clipPath id="c0_47"><path d="M7.6,1203.1V6.9H927.4V1203.1Z"/></clipPath>
<style type="text/css"><![CDATA[
.g0_47{
fill: #808080;
}
.g1_47{
fill: #2C2C2C;
stroke: #000000;
stroke-width: 0.152;
stroke-linecap: square;
stroke-linejoin: miter;
}
.g2_47{
fill: #808080;
stroke: #000000;
stroke-width: 0.152;
stroke-linecap: square;
stroke-linejoin: miter;
}
.g3_47{
fill: none;
stroke: #0000EE;
stroke-width: 1.145;
stroke-linecap: square;
stroke-linejoin: miter;
}
]]></style>
</defs>
<path d="M35.1,6.9H899.9V8H35.1V6.9Z" class="g0_47"/>
<g clip-path="url(#c0_47)">
<path fill-rule="evenodd" d="M35.1,3.4V8L36.3,6.9V3.4Z" class="g1_47"/>
<path fill-rule="evenodd" d="M898.7,4.6V8h1.2V3.4Z" class="g2_47"/>
</g>
<path d="M462.3,132.3h71.1ZM171.4,158.7h88.2Zm115.7,0H619.3Zm262.3,32.1h71Zm279.5,32.1h96.2ZM430.3,281.3h71Zm-20.6,32.1h71Zm166,32.1H723.5ZM282.5,398.2h71ZM600.9,483h71ZM453.2,509.3h96.2Zm73.3,559.2h88.2ZM78.7,1094.8h71Z" class="g3_47"/>
</svg>