<?xml version="1.0" encoding="UTF-8" standalone="no"?>
<!DOCTYPE svg PUBLIC "-//W3C//DTD SVG 1.1//EN"
"http://www.w3.org/Graphics/SVG/1.1/DTD/svg11.dtd">
<svg viewBox="0 0 935 1210" version="1.1" xmlns="http://www.w3.org/2000/svg" xmlns:xlink="http://www.w3.org/1999/xlink">
<defs>
<style type="text/css"><![CDATA[
.g0_121{
fill: none;
stroke: #0000EE;
stroke-width: 1.145;
stroke-linecap: square;
stroke-linejoin: miter;
}
]]></style>
</defs>
<path d="M232.1,167.9H255Zm40.1,0h22.9Zm3.5,28.6h11.4Zm-95.1,57.3h34.3Zm51.5,0h34.4Zm65.3,28.6H594.1ZM138.2,311.1h34.4Zm14.9,28.6h34.4Zm51.5,0H239Zm-82.4,28.7h34.3Zm249.7,57.3h34.3Zm-92.8,28.6h34.3ZM266.5,483h22.9Zm40.1,0h22.9ZM294,511.6h34.3Zm51.5,0h34.4Zm-76.7,57.3h34.3Zm-36.7,28.7H255Zm-43.5,28.6h22.9Zm-87,28.6h22.9Zm40,0h23ZM239,683.5h22.9Zm55,57.3h34.3Zm51.5,0h34.4Zm-22.9,28.6h22.9Zm40.1,0h22.9ZM302,798.1h22.9Zm-25.2,28.6h22.9Zm40.1,0h22.9Zm-53.8,28.7h34.3Zm51.5,0H349ZM354.7,884H389Zm51.5,0h34.4Zm-64.1,28.7h34.3Zm51.5,0H428ZM288.3,941.3h22.9Zm40,0h22.9ZM125.6,969.9h22.9Zm40.1,0h22.9ZM129,998.6h23Zm14.9,28.6h22.9Zm40.1,0h22.9Zm-12.6,28.7h34.4Zm51.6,0h34.3Zm-100.8,28.6h22.9Zm73.3,28.7h11.4Zm28.6,0h11.5Zm-36.6,28.6h22.9Zm40,0h23Zm-24,28.7h22.9Zm40.1,0h22.9Z" class="g0_121"/>
</svg>