<?xml version="1.0" encoding="UTF-8" standalone="no"?>
<!DOCTYPE svg PUBLIC "-//W3C//DTD SVG 1.1//EN"
"http://www.w3.org/Graphics/SVG/1.1/DTD/svg11.dtd">
<svg viewBox="0 0 935 1210" version="1.1" xmlns="http://www.w3.org/2000/svg" xmlns:xlink="http://www.w3.org/1999/xlink">
<defs>
<style type="text/css"><![CDATA[
.g0_123{
fill: none;
stroke: #0000EE;
stroke-width: 1.145;
stroke-linecap: square;
stroke-linejoin: miter;
}
]]></style>
</defs>
<path d="M326,28.1h23Zm40.1,0H389ZM291.7,56.7h22.9Zm40.1,0h22.9Zm-197,28.7h22.9Zm40.1,0h22.9ZM412,114h34.3Zm51.5,0h34.4ZM315.7,142.7H470.4Zm48.1,28.6h23Zm40.1,0h22.9Zm4.6,28.6h22.9Zm112.3,28.7h34.3Zm51.5,0h34.4ZM205.8,257.2h11.4Zm28.6,0h11.5Zm-21.7,28.7H322.6Zm-17.2,28.6h11.4Zm197,28.7h22.9ZM166.8,371.8h23Zm40.1,0h22.9Zm-9.1,28.7h34.3Zm51.5,0h34.4Zm205,57.3h22.9Zm40.1,0h22.9Zm40.1,0h22.9ZM259.6,486.4h22.9Zm40.1,0h22.9Zm40.1,0h22.9Zm40.1,0h22.9Zm-118,28.7h34.4Zm171.8,28.6h34.4Zm51.6,0h34.3ZM319.2,572.3h22.9ZM247,601h22.9Zm161.5,28.6h22.9Zm-80.2,28.7h11.5Zm28.7,0h11.4Zm-36.7,28.6h22.9Zm111.1,28.7h22.9Zm40.1,0h22.9ZM314.6,800.4H349ZM371.9,829h22.9Zm40.1,0h34.3ZM109.6,857.7h22.9ZM83.2,886.3h22.9Zm40.1,0h22.9Zm40.1,0h22.9Zm40.1,0h22.9ZM89,914.9h22.9Zm40,0h23Zm231.4,57.3h22.9Zm-126,28.7h22.9Zm-40.1,28.6h22.9Zm305.8,28.7h23Zm40.1,0h34.4Zm-234.8,57.3h34.4Zm51.6,0h34.3Zm-104.3,28.6h34.4Zm51.6,0h34.3Zm-92.8,28.7h34.4Z" class="g0_123"/>
</svg>