<?xml version="1.0" encoding="UTF-8" standalone="no"?>
<!DOCTYPE svg PUBLIC "-//W3C//DTD SVG 1.1//EN"
"http://www.w3.org/Graphics/SVG/1.1/DTD/svg11.dtd">
<svg viewBox="0 0 935 1210" version="1.1" xmlns="http://www.w3.org/2000/svg" xmlns:xlink="http://www.w3.org/1999/xlink">
<defs>
<style type="text/css"><![CDATA[
.g0_134{
fill: none;
stroke: #0000EE;
stroke-width: 1.145;
stroke-linecap: square;
stroke-linejoin: miter;
}
]]></style>
</defs>
<path d="M219.5,28.1h22.9ZM375.3,56.7h22.9Zm1.1,28.7h23ZM338.6,114h23Zm40.1,0h34.4Zm51.6,0h34.3Zm-34.4,28.7h22.9Zm-9.1,28.6h22.9Zm40,0h22.9ZM202.3,199.9h23Zm40.1,0h22.9ZM121,228.6h22.9Zm40.1,0H184Zm40.1,0h22.9Zm-5.7,28.6h22.9Zm40.1,0h22.9Zm40.1,0h22.9Zm40,0h22.9Zm89.4,28.7H428ZM253.9,314.5h34.4Zm97.3,28.7h34.4ZM286,371.8h34.3Zm11.4,84.8h22.9Zm40.1,0h22.9Zm-2.3,28.7h34.4Zm51.6,0h34.3Zm-42.4,84.8h34.3Zm19.4,28.6h34.4Zm51.6,0h34.3Zm-43.5,28.6h22.9ZM410.8,656h22.9Zm40.1,0h22.9Zm-90.5,57.3h34.4Zm-18.3,28.6h34.3Zm-21.8,28.7h34.4Zm51.6,0h34.3Zm-244,28.6h34.4Z" class="g0_134"/>
</svg>