<?xml version="1.0" encoding="UTF-8" standalone="no"?>
<!DOCTYPE svg PUBLIC "-//W3C//DTD SVG 1.1//EN"
"http://www.w3.org/Graphics/SVG/1.1/DTD/svg11.dtd">
<svg viewBox="0 0 935 1210" version="1.1" xmlns="http://www.w3.org/2000/svg" xmlns:xlink="http://www.w3.org/1999/xlink">
<defs>
<style type="text/css"><![CDATA[
.g0_130{
fill: none;
stroke: #0000EE;
stroke-width: 1.145;
stroke-linecap: square;
stroke-linejoin: miter;
}
]]></style>
</defs>
<path d="M336.4,31.5h22.9Zm10.3,28.7H381Zm-126,28.6h22.9Zm40.1,0h34.3Zm-8.1,28.6h34.4Zm51.6,0h34.3Zm-84.8,57.3h22.9Zm113.4,28.7h22.9ZM235.6,232h22.9Zm10.3,28.7h22.9Zm58.4,28.6h22.9Zm40.1,0h22.9Zm22.9,84.8h22.9Zm40.1,0h22.9ZM176,458.9H314.6Zm146.6,28.7h22.9Zm45.8,28.6h22.9Zm40.1,0h22.9ZM283.7,544.8H318Zm51.5,0h34.4Zm77.9,28.7H436Zm40.1,0h22.9ZM381,602.1h22.9Zm40.1,0H444Zm20.6,28.7h22.9Zm40.1,0h22.9ZM233.3,659.4h22.9Zm40.1,0h22.9ZM381,688.1h22.9Zm40.1,0H444ZM160,716.7h22.9Zm40.1,0H223Zm40,0h23Zm-44.6,28.7h11.4ZM245.9,774h22.9Zm185.5,28.7h34.4Zm51.6,0h34.3ZM109.6,859.9h22.9Zm215.3,28.7h22.9Zm40.1,0h22.9ZM143.9,917.2h22.9Zm269.2,28.7H436Zm40.1,0h22.9Zm-90.5,113.4h22.9Zm40.1,0h22.9ZM371.9,1088h34.3Zm51.5,0h34.4Zm-140.9,28.6h34.4Zm51.6,0h34.3Zm-155.8,28.7h22.9Zm40.1,0h22.9Z" class="g0_130"/>
</svg>