<?xml version="1.0" encoding="UTF-8" standalone="no"?>
<!DOCTYPE svg PUBLIC "-//W3C//DTD SVG 1.1//EN"
"http://www.w3.org/Graphics/SVG/1.1/DTD/svg11.dtd">
<svg viewBox="0 0 935 1210" version="1.1" xmlns="http://www.w3.org/2000/svg" xmlns:xlink="http://www.w3.org/1999/xlink">
<defs>
<style type="text/css"><![CDATA[
.g0_129{
fill: none;
stroke: #0000EE;
stroke-width: 1.145;
stroke-linecap: square;
stroke-linejoin: miter;
}
]]></style>
</defs>
<path d="M153.1,28.1h11.5ZM367.3,56.7h22.9ZM166.8,170.2h23Zm40.1,0h22.9ZM247,198.8h34.4Zm51.6,0h34.3Zm61.8,28.6h34.4Zm51.6,0h34.3ZM265.3,256.1h23Zm214.2,28.6h22.9ZM280.2,313.4h11.5ZM228.7,342h34.4Zm71,28.7h22.9Zm40.1,0h22.9Zm59.6,84.8h22.9Zm40,0h22.9Zm40.1,0h22.9Zm40.1,0h22.9Zm-197,57.3h22.9Zm-126,28.6h22.9Zm39,28.7h22.9Zm10.3,28.6h22.9Zm131.7,28.6H412Zm51.5,0h34.4ZM454.3,656h22.9ZM352.4,740.8h34.4Zm51.5,0h34.4Zm122.6,28.6h34.3Zm-244,28.7h22.9Zm93.9,28.6h34.4Zm33.3,28.7h11.4Zm8,28.6h22.9Zm-41.3,28.7h23ZM176,969.9h22.9Zm40.1,0H239ZM302,998.6h22.9Zm40.1,0H365Zm11.4,28.6h22.9Zm-129.4,28.7H247Zm40.1,0h22.9Zm53.8,28.6h22.9Zm40.1,0H381Zm-129.4,57.3h22.9Zm89.3,28.7h34.4Zm-164.9,28.6H176Z" class="g0_129"/>
</svg>