<?xml version="1.0" encoding="UTF-8" standalone="no"?>
<!DOCTYPE svg PUBLIC "-//W3C//DTD SVG 1.1//EN"
"http://www.w3.org/Graphics/SVG/1.1/DTD/svg11.dtd">
<svg viewBox="0 0 935 1210" version="1.1" xmlns="http://www.w3.org/2000/svg" xmlns:xlink="http://www.w3.org/1999/xlink">
<defs>
<style type="text/css"><![CDATA[
.g0_99{
fill: #2C2C2C;
}
.g1_99{
fill: #808080;
}
.g2_99{
fill: #2C2C2C;
stroke: #000000;
stroke-width: 0.152;
stroke-linecap: square;
stroke-linejoin: miter;
}
.g3_99{
fill: #808080;
stroke: #000000;
stroke-width: 0.152;
stroke-linecap: square;
stroke-linejoin: miter;
}
.g4_99{
fill: none;
stroke: #0000EE;
stroke-width: 1.145;
stroke-linecap: square;
stroke-linejoin: miter;
}
]]></style>
</defs>
<path d="M35.1,528.2H899.9v1.2H35.1v-1.2Z" class="g0_99"/>
<path d="M35.1,531.7H899.9v1.1H35.1v-1.1Z" class="g1_99"/>
<path fill-rule="evenodd" d="M35.1,528.2v4.6l1.2,-1.1v-3.5Z" class="g2_99"/>
<path fill-rule="evenodd" d="M898.7,529.4v3.4h1.2v-4.6Z" class="g3_99"/>
<path d="M35.1,885.7H899.9v1.2H35.1v-1.2Z" class="g0_99"/>
<path d="M35.1,889.2H899.9v1.1H35.1v-1.1Z" class="g1_99"/>
<path fill-rule="evenodd" d="M35.1,885.7v4.6l1.2,-1.1v-3.5Z" class="g2_99"/>
<path fill-rule="evenodd" d="M898.7,886.9v3.4h1.2v-4.6Z" class="g3_99"/>
<image preserveAspectRatio="none" x="8" y="204" width="919" height="202" xlink:href="img/1.png"/>
<path d="M689.1,677.8h96.2Zm110,165h71ZM604.4,869.1h96.2ZM7.6,1093.7H78.7Zm722.8,26.4h71Z" class="g4_99"/>
</svg>