<?xml version="1.0" encoding="UTF-8" standalone="no"?>
<!DOCTYPE svg PUBLIC "-//W3C//DTD SVG 1.1//EN"
"http://www.w3.org/Graphics/SVG/1.1/DTD/svg11.dtd">
<svg viewBox="0 0 935 1210" version="1.1" xmlns="http://www.w3.org/2000/svg" xmlns:xlink="http://www.w3.org/1999/xlink">
<defs>
<style type="text/css"><![CDATA[
.g0_133{
fill: none;
stroke: #0000EE;
stroke-width: 1.145;
stroke-linecap: square;
stroke-linejoin: miter;
}
]]></style>
</defs>
<path d="M337.5,28.1h22.9ZM297.4,56.7h22.9ZM408.5,85.4h22.9Zm40.1,0h22.9ZM318,114h34.4Zm51.6,0h34.3Zm-29.8,28.7h22.9Zm27.5,28.6h22.9Zm-4.6,28.6h22.9Zm40.1,0h22.9ZM297.4,257.2h22.9Zm13.8,28.7h22.9Zm-79.1,28.6H255Zm-14.9,28.7h11.5Zm28.7,0h11.4Zm76.7,57.3h22.9Zm-48.1,28.6h22.9Zm40.1,0h22.9Zm57.3,28.7h34.3ZM263.1,486.4h34.3Zm3.4,28.7h22.9Zm40.1,0h22.9Zm14.9,28.6h34.3Zm51.5,0h34.4ZM271.1,572.3h11.4Zm28.6,0h11.5ZM454.3,601h22.9Zm40.1,0h22.9ZM247,629.6h22.9Zm40.1,0H310Zm40.1,0h22.9Zm40.1,0h22.9ZM310,743.1h34.4Zm218.8,28.6h22.9Zm40.1,0h22.9ZM444,800.4h22.9Zm40.1,0H507ZM439.4,829h22.9ZM195.5,857.7h22.9Zm40.1,0h22.9Zm-92.8,28.6h22.9Zm40.1,0h22.9Zm248.5,28.6h22.9Zm-67.6,28.7h23Zm40.1,0h22.9ZM234.4,972.2h22.9Zm40.1,0h22.9Zm104.2,28.7h22.9Zm40.1,0h22.9Zm-186.7,28.6H255Zm60.7,28.7h34.4Zm51.6,0h34.3Zm-138.6,28.6h11.4Zm-39,28.7h23Zm40.1,0h22.9Zm40.1,0h22.9Zm74.5,28.6h34.3Zm51.5,0h34.4Z" class="g0_133"/>
</svg>