<?xml version="1.0" encoding="UTF-8" standalone="no"?>
<!DOCTYPE svg PUBLIC "-//W3C//DTD SVG 1.1//EN"
"http://www.w3.org/Graphics/SVG/1.1/DTD/svg11.dtd">
<svg viewBox="0 0 935 1210" version="1.1" xmlns="http://www.w3.org/2000/svg" xmlns:xlink="http://www.w3.org/1999/xlink">
<defs>
<style type="text/css"><![CDATA[
.g0_64{
fill: #2C2C2C;
}
.g1_64{
fill: #808080;
}
.g2_64{
fill: #2C2C2C;
stroke: #000000;
stroke-width: 0.152;
stroke-linecap: square;
stroke-linejoin: miter;
}
.g3_64{
fill: #808080;
stroke: #000000;
stroke-width: 0.152;
stroke-linecap: square;
stroke-linejoin: miter;
}
.g4_64{
fill: none;
stroke: #0000EE;
stroke-width: 1.145;
stroke-linecap: square;
stroke-linejoin: miter;
}
]]></style>
</defs>
<path d="M35.1,176.5H899.9v1.1H35.1v-1.1Z" class="g0_64"/>
<path d="M35.1,179.9H899.9V181H35.1v-1.1Z" class="g1_64"/>
<path fill-rule="evenodd" d="M35.1,176.5V181l1.2,-1.1v-3.4Z" class="g2_64"/>
<path fill-rule="evenodd" d="M898.7,177.6V181h1.2v-4.5Z" class="g3_64"/>
<path d="M35.1,805.5H899.9v1.2H35.1v-1.2Z" class="g0_64"/>
<path d="M35.1,809H899.9v1.1H35.1V809Z" class="g1_64"/>
<path fill-rule="evenodd" d="M35.1,805.5v4.6L36.3,809v-3.5Z" class="g2_64"/>
<path fill-rule="evenodd" d="M898.7,806.7v3.4h1.2v-4.6Z" class="g3_64"/>
<path d="M35.1,1077.1H899.9v1.1H35.1v-1.1Z" class="g0_64"/>
<path d="M35.1,1080.5H899.9v1.2H35.1v-1.2Z" class="g1_64"/>
<path fill-rule="evenodd" d="M35.1,1077.1v4.6l1.2,-1.2v-3.4Z" class="g2_64"/>
<path fill-rule="evenodd" d="M898.7,1078.2v3.5h1.2v-4.6Z" class="g3_64"/>
<image preserveAspectRatio="none" x="153" y="199" width="630" height="484" xlink:href="img/1.png"/>
<path d="M605.5,928.7h71Z" class="g4_64"/>
</svg>